<?xml version="1.0" standalone="no"?>
<!DOCTYPE svg PUBLIC "-//W3C//DTD SVG 20010904//EN"
 "http://www.w3.org/TR/2001/REC-SVG-20010904/DTD/svg10.dtd">
<svg version="1.0" xmlns="http://www.w3.org/2000/svg"
 width="1036.000000pt" height="1036.000000pt" viewBox="0 0 1036.000000 1036.000000"
 preserveAspectRatio="xMidYMid meet">
<metadata>
Created by potrace 1.11, written by Peter Selinger 2001-2013
</metadata>
<g transform="translate(0.000000,1036.000000) scale(0.100000,-0.100000)"
fill="#000000" stroke="none">
<path d="M2820 8479 c-88 -23 -168 -54 -206 -80 -46 -31 -144 -135 -144 -152
0 -6 -6 -18 -13 -26 -7 -9 -23 -41 -34 -71 -12 -30 -47 -120 -79 -200 -31 -80
-61 -156 -67 -170 -5 -14 -11 -29 -12 -35 -4 -17 -65 -168 -81 -198 -8 -16
-14 -33 -14 -38 0 -6 -11 -35 -25 -65 -14 -30 -25 -59 -25 -64 0 -6 -4 -18
-10 -28 -5 -9 -39 -93 -75 -187 -37 -93 -70 -179 -75 -190 -5 -11 -52 -130
-105 -265 -52 -135 -99 -254 -104 -265 -5 -11 -34 -83 -64 -160 -30 -77 -58
-149 -62 -160 -5 -11 -9 -22 -10 -25 -1 -3 -5 -14 -10 -25 -42 -101 -96 -243
-99 -259 -7 -43 4 -45 242 -45 167 0 231 3 244 12 13 10 80 157 92 202 2 6 8
24 15 40 6 17 34 89 62 160 28 72 55 139 59 150 5 11 23 56 41 100 17 44 37
94 45 112 8 17 14 33 14 36 0 3 5 18 12 34 6 15 12 30 13 33 1 3 5 14 10 25 5
11 55 139 112 285 57 146 111 279 119 297 7 17 14 38 14 46 0 9 4 18 9 21 5 3
12 18 16 33 3 16 13 42 20 58 8 17 32 77 55 135 22 58 45 113 50 122 6 10 10
26 10 36 0 10 5 23 12 30 6 6 13 17 14 24 5 28 57 155 76 187 43 69 158 83
215 26 17 -18 45 -82 104 -240 28 -77 67 -180 86 -230 19 -49 40 -106 47 -125
20 -53 157 -415 226 -595 34 -88 63 -168 65 -177 2 -9 8 -25 13 -35 5 -10 46
-117 91 -238 45 -121 86 -229 91 -240 5 -11 32 -81 60 -155 28 -74 58 -142 66
-152 14 -15 43 -17 243 -18 125 0 235 2 244 5 23 9 32 -21 -143 440 -40 105
-79 208 -87 230 -7 22 -18 49 -23 60 -5 11 -19 49 -33 85 -22 59 -46 124 -157
415 -21 55 -66 174 -100 265 -34 91 -66 174 -70 185 -5 11 -28 70 -50 130 -57
152 -92 244 -134 352 -20 51 -36 96 -36 99 0 3 -6 20 -14 37 -7 18 -24 59 -37
92 -84 220 -259 323 -549 323 -69 0 -141 -5 -160 -9z"/>
<path d="M5197 8454 c-13 -8 -28 -24 -31 -36 -5 -17 -11 -2330 -7 -2535 1 -18
11 -44 25 -60 l24 -27 173 -1 c96 -1 183 3 194 8 53 27 50 -63 50 1311 1 738
-3 1283 -8 1299 -5 15 -19 33 -31 40 -30 17 -355 18 -389 1z"/>
<path d="M6527 8450 c-21 -17 -21 -26 -22 -211 -1 -180 1 -195 20 -216 l20
-24 760 -3 c418 -1 772 -6 786 -9 121 -31 208 -125 238 -256 13 -61 6 -171
-14 -227 -19 -51 -89 -154 -105 -154 -5 0 -16 -7 -24 -16 -9 -8 -42 -25 -74
-36 -55 -20 -78 -21 -662 -24 -333 -2 -621 -5 -640 -8 -51 -7 -74 -14 -135
-42 -85 -38 -149 -144 -162 -266 -4 -42 -8 -1044 -4 -1121 2 -34 50 -43 245
-42 161 1 188 3 203 18 15 15 17 59 18 469 1 499 0 490 64 526 34 19 54 20
359 21 l322 2 24 -26 c25 -27 166 -262 166 -276 0 -5 5 -9 10 -9 6 0 10 -4 10
-10 0 -5 27 -54 60 -108 33 -55 60 -105 60 -111 0 -6 5 -11 10 -11 6 0 10 -4
10 -8 0 -10 123 -220 139 -239 6 -7 11 -15 11 -18 0 -12 112 -194 127 -207 11
-9 76 -12 242 -13 124 0 232 1 239 3 6 2 12 12 12 22 0 14 -74 150 -140 260
-5 8 -56 96 -113 195 -58 99 -114 196 -126 215 -11 19 -24 42 -28 50 -3 8 -28
50 -55 93 -26 43 -48 80 -48 83 0 2 -18 33 -40 69 -45 73 -48 85 -23 85 19 0
200 87 219 105 6 5 35 30 63 54 57 48 124 137 166 221 30 59 67 160 59 160 -3
0 -1 8 5 18 23 44 35 294 18 392 -4 25 -9 52 -10 60 -1 8 -6 21 -11 28 -4 7
-6 16 -3 18 8 9 -48 137 -85 195 -50 77 -94 124 -169 180 -100 74 -194 113
-364 151 -34 8 -299 12 -828 13 -727 2 -780 1 -800 -15z"/>
<path d="M2127 5364 c-3 -3 -46 -7 -95 -9 -89 -3 -177 -11 -219 -19 -13 -3
-25 -1 -28 5 -8 13 -68 11 -102 -3 -15 -6 -31 -11 -35 -10 -77 16 -1598 25
-1598 10 0 -5 10 -8 23 -9 12 0 31 -3 42 -5 11 -2 78 -6 148 -9 141 -4 336
-13 467 -21 46 -2 127 -7 180 -9 52 -2 118 -6 145 -9 28 -3 95 -8 150 -11 54
-4 103 -9 107 -11 19 -12 188 -12 246 0 l62 14 0 -34 c0 -29 -5 -36 -32 -48
-18 -7 -44 -26 -58 -41 -25 -26 -25 -30 -28 -217 -2 -211 4 -239 61 -280 29
-20 43 -22 172 -22 129 0 143 1 172 22 16 12 36 35 43 52 l13 31 81 -6 c45 -3
108 -7 142 -9 33 -3 95 -7 137 -10 43 -3 110 -8 150 -11 39 -3 104 -8 142 -11
39 -2 99 -7 135 -9 78 -5 174 -12 290 -21 47 -3 101 -7 120 -8 19 -1 41 -5 48
-9 7 -5 12 -3 12 3 0 6 4 9 8 6 8 -5 106 -14 217 -20 39 -3 106 -7 150 -11 44
-3 98 -7 121 -9 55 -4 64 -11 64 -51 0 -55 38 -159 81 -223 42 -64 107 -125
174 -162 85 -48 117 -53 369 -57 132 -2 242 -5 244 -8 2 -2 -32 -97 -77 -212
-45 -114 -88 -224 -94 -245 -7 -21 -15 -38 -19 -38 -5 0 -8 -6 -8 -14 0 -12
-46 -135 -71 -191 -4 -11 -29 -74 -54 -140 -25 -66 -50 -131 -56 -145 -15 -33
-24 -55 -45 -115 -10 -27 -24 -61 -31 -75 -7 -14 -13 -28 -13 -32 0 -7 -102
-273 -120 -313 -13 -28 -154 -389 -155 -395 0 -3 -20 -52 -43 -110 -56 -140
-59 -176 -13 -203 25 -14 57 -17 218 -17 l188 0 17 33 c9 17 21 46 27 62 6 17
16 44 22 60 7 17 13 32 13 35 1 5 60 153 81 205 7 17 43 109 80 205 37 96 94
242 126 324 33 82 59 155 59 163 0 7 4 13 10 13 5 0 9 3 8 8 -3 6 12 50 33 97
5 11 17 43 27 70 10 28 23 59 27 70 5 11 9 23 10 28 2 4 4 9 5 12 1 3 3 8 4
13 1 4 10 24 19 46 9 21 17 40 17 42 0 2 111 287 155 399 5 11 9 22 10 25 1 3
6 16 12 30 6 14 16 43 24 64 18 51 83 114 124 122 37 7 78 -11 111 -48 26 -27
48 -76 99 -218 21 -58 42 -116 48 -130 5 -14 11 -29 13 -35 6 -21 55 -151 64
-170 5 -11 21 -54 35 -95 15 -41 38 -104 51 -140 14 -36 34 -89 45 -117 10
-29 28 -77 39 -105 29 -78 41 -112 42 -118 1 -3 14 -36 30 -75 16 -38 28 -70
28 -70 -2 0 172 -469 195 -525 8 -19 30 -80 50 -135 54 -149 47 -145 271 -145
183 0 185 0 209 25 14 13 25 35 25 49 0 14 -55 171 -121 348 -67 178 -133 352
-146 388 -14 36 -29 79 -35 95 -5 17 -14 39 -19 50 -10 22 -139 364 -143 380
-2 6 -6 17 -9 25 -8 19 -142 375 -173 460 -13 36 -55 146 -93 245 -37 99 -67
181 -66 183 2 2 94 3 206 3 152 0 219 4 264 15 199 52 344 217 370 423 7 57 7
57 57 60 75 3 291 18 388 26 36 3 106 8 155 11 195 13 346 24 418 29 32 3 63
7 68 10 5 4 9 1 9 -5 0 -6 5 -8 10 -5 11 7 32 9 185 20 50 3 119 8 155 11 36
2 97 7 135 9 39 2 107 7 151 10 l82 6 13 -29 c7 -16 28 -40 48 -53 32 -22 45
-24 160 -25 229 -2 244 16 244 293 0 176 -1 184 -24 218 -13 19 -41 41 -61 49
-33 14 -36 19 -34 48 2 22 8 32 17 29 85 -24 309 -32 499 -17 196 14 315 22
490 32 91 5 140 8 320 19 136 9 198 12 261 14 27 0 49 6 52 14 3 9 -84 12
-417 13 -231 0 -468 4 -526 8 -308 22 -545 22 -696 -2 -28 -5 -59 -5 -70 -1
-29 12 -82 10 -90 -2 -4 -8 -39 -9 -118 -3 -127 9 -1536 12 -1542 3 -1 -3 2
-6 9 -6 7 0 30 -3 52 -7 22 -4 94 -9 160 -12 66 -2 170 -6 230 -9 61 -3 162
-8 225 -11 316 -14 569 -32 685 -49 28 -5 55 -8 60 -8 27 1 104 14 135 23 19
5 35 10 35 10 1 0 1 -16 0 -36 0 -31 -5 -38 -33 -50 -70 -29 -86 -71 -85 -226
0 -99 -2 -105 -39 -99 -4 0 -121 3 -260 6 -431 10 -656 15 -858 20 -251 7
-552 14 -610 14 l-46 1 -12 48 c-31 121 -133 249 -245 309 -111 60 -91 59
-1147 57 -953 -1 -966 -1 -1030 -22 -163 -53 -285 -182 -329 -349 l-12 -43
-62 -1 c-34 0 -136 -2 -227 -4 -156 -4 -253 -6 -850 -21 -135 -3 -341 -7 -459
-8 l-213 -1 -2 115 c-1 63 -7 127 -13 141 -13 30 -62 69 -87 69 -12 0 -16 10
-16 36 l0 36 38 -7 c20 -4 48 -10 62 -13 34 -7 335 -7 438 1 45 4 119 9 165
12 45 3 118 8 162 11 44 3 114 7 155 10 205 10 262 13 345 19 280 17 275 17
275 33 0 4 -188 7 -417 7 -230 0 -476 4 -548 9 -71 5 -165 9 -207 10 -43 1
-78 4 -78 7 0 4 -18 3 -39 -1 -21 -4 -46 -3 -54 1 -8 5 -17 6 -20 3z m3158
-393 c172 -86 210 -310 74 -442 -76 -73 -180 -97 -279 -64 -63 21 -142 92
-166 150 -23 55 -25 149 -5 204 23 64 108 146 168 165 63 18 158 12 208 -13z"/>
<path d="M5172 4928 c-17 -17 -2 -37 42 -57 53 -24 80 -50 102 -101 14 -31 23
-40 39 -38 23 4 24 34 0 83 -31 66 -154 142 -183 113z"/>
<path d="M1558 4398 c-17 -3 -37 -13 -43 -22 -9 -11 -11 -247 -9 -893 1 -483
3 -885 4 -893 2 -24 22 -125 34 -177 22 -93 121 -261 188 -318 121 -105 250
-171 388 -199 14 -3 36 -8 50 -11 14 -3 39 -9 55 -12 17 -3 289 -8 606 -10
545 -4 576 -3 598 14 22 18 22 23 22 208 -1 184 -2 190 -23 205 -18 13 -100
15 -557 16 -580 1 -593 2 -716 59 -88 40 -174 141 -190 223 -3 15 -8 43 -11
62 -4 19 -8 411 -9 870 -1 459 -3 840 -4 847 -3 27 -47 35 -197 37 -84 0 -168
-2 -186 -6z"/>
<path d="M7037 4403 c-1 -1 -22 -4 -46 -8 -82 -12 -131 -62 -148 -150 -10 -50
-9 -2173 1 -2238 9 -61 62 -120 123 -136 47 -13 1198 -10 1243 3 14 3 36 9 50
11 14 2 43 9 65 15 22 6 47 13 55 15 8 2 16 4 18 5 1 2 5 3 10 4 28 6 135 63
186 100 80 58 121 104 167 190 106 200 111 467 10 664 -48 93 -158 197 -258
243 l-44 20 68 34 c68 34 161 114 198 170 38 59 70 138 90 229 16 75 4 235
-29 376 -7 28 -55 129 -70 147 -6 7 -24 30 -41 52 -36 46 -172 151 -197 151
-10 0 -18 4 -18 10 0 5 -3 9 -7 8 -5 -1 -24 5 -43 13 -72 32 -206 58 -325 65
-74 4 -1055 11 -1058 7z m1083 -448 c104 -17 193 -82 234 -170 25 -55 29 -78
28 -164 -2 -161 -108 -268 -287 -287 -24 -3 -655 -6 -786 -4 l-35 0 0 307 c1
301 1 308 22 318 24 12 752 12 824 0z m-263 -996 c236 -1 305 -9 373 -41 110
-53 163 -148 162 -292 0 -92 -28 -171 -79 -224 -38 -40 -117 -79 -183 -90 -30
-6 -229 -11 -442 -11 -320 -1 -388 1 -400 13 -12 11 -14 70 -14 327 l1 314
159 2 c87 1 161 4 163 7 3 3 9 3 14 1 4 -3 115 -6 246 -6z"/>
</g>
</svg>
