<?xml version="1.0" encoding="UTF-8"?>
<svg id="a" data-name="cmu ri paths" xmlns="http://www.w3.org/2000/svg" viewBox="0 0 1190.14 203.56" width="285" height="50">
  <g>
    <path d="M25.67,116.73c6.8,0,12.47,.74,17.02,2.23,4.55,1.48,7.98,3.93,10.28,7.32,2.3,3.4,3.46,7.99,3.46,13.77,0,4.34-.79,8.06-2.37,11.16s-3.76,5.65-6.53,7.65c-2.77,1.99-5.98,3.52-9.61,4.57l23.5,38.96h-7.15l-22.09-37.27H10.9v37.27H4.87V116.73H25.67Zm-.59,5.33H10.9v37.73H27.96c6.99,0,12.45-1.68,16.38-5.04,3.93-3.36,5.89-8.18,5.89-14.47,0-6.91-2.07-11.68-6.21-14.3-4.14-2.62-10.45-3.93-18.93-3.93Z"/>
    <path d="M121.83,170.46c0,4.92-.61,9.4-1.82,13.45-1.21,4.04-3.01,7.53-5.39,10.46-2.38,2.93-5.34,5.2-8.88,6.8-3.54,1.6-7.65,2.4-12.33,2.4s-8.42-.79-11.89-2.37c-3.48-1.58-6.42-3.84-8.82-6.77s-4.23-6.42-5.48-10.46c-1.25-4.04-1.88-8.54-1.88-13.51,0-6.84,1.14-12.72,3.43-17.67,2.29-4.94,5.57-8.73,9.84-11.37s9.4-3.96,15.38-3.96,11.32,1.4,15.44,4.19c4.12,2.79,7.22,6.67,9.29,11.63,2.07,4.96,3.11,10.68,3.11,17.17Zm-50.39,0c0,5.59,.8,10.47,2.4,14.65,1.6,4.18,4.03,7.44,7.29,9.79,3.26,2.34,7.39,3.52,12.39,3.52s9.32-1.17,12.6-3.52,5.7-5.62,7.27-9.84c1.56-4.22,2.34-9.08,2.34-14.59s-.74-10.12-2.23-14.3c-1.48-4.18-3.83-7.47-7.03-9.87-3.2-2.4-7.38-3.6-12.54-3.6-7.38,0-12.98,2.46-16.79,7.38s-5.71,11.72-5.71,20.39Z"/>
    <path d="M139.53,111.22v25.9c0,2.23-.04,4.67-.12,7.32-.08,2.66-.16,4.86-.23,6.62h.35c1.52-3.94,4.18-7.21,7.97-9.79,3.79-2.58,8.52-3.87,14.18-3.87,8.28,0,14.68,2.79,19.19,8.38,4.51,5.59,6.77,13.77,6.77,24.55,0,6.6-1.02,12.39-3.05,17.37-2.03,4.98-5.05,8.87-9.05,11.66-4,2.79-9.01,4.19-15.03,4.19-5.43,0-9.86-1.14-13.3-3.43-3.44-2.29-5.94-5.15-7.5-8.58h-.47l-1.11,10.84h-4.51V111.22h5.92Zm21.5,31.35c-5.04,0-9.14,1.08-12.3,3.25s-5.49,5.32-6.97,9.46c-1.48,4.14-2.23,9.2-2.23,15.18v.94c0,8.79,1.6,15.49,4.8,20.1,3.2,4.61,8.4,6.91,15.59,6.91s12.49-2.43,16.14-7.29c3.65-4.86,5.48-11.79,5.48-20.77s-1.7-16.1-5.1-20.77c-3.4-4.67-8.54-7-15.41-7Z"/>
    <path d="M256.26,170.46c0,4.92-.61,9.4-1.82,13.45-1.21,4.04-3.01,7.53-5.39,10.46-2.38,2.93-5.34,5.2-8.88,6.8-3.54,1.6-7.65,2.4-12.33,2.4s-8.42-.79-11.89-2.37c-3.48-1.58-6.42-3.84-8.82-6.77s-4.23-6.42-5.48-10.46c-1.25-4.04-1.88-8.54-1.88-13.51,0-6.84,1.14-12.72,3.43-17.67,2.29-4.94,5.57-8.73,9.84-11.37s9.4-3.96,15.38-3.96,11.32,1.4,15.44,4.19c4.12,2.79,7.22,6.67,9.29,11.63,2.07,4.96,3.11,10.68,3.11,17.17Zm-50.39,0c0,5.59,.8,10.47,2.4,14.65,1.6,4.18,4.03,7.44,7.29,9.79,3.26,2.34,7.39,3.52,12.39,3.52s9.32-1.17,12.6-3.52,5.7-5.62,7.27-9.84c1.56-4.22,2.34-9.08,2.34-14.59s-.74-10.12-2.23-14.3c-1.48-4.18-3.83-7.47-7.03-9.87-3.2-2.4-7.38-3.6-12.54-3.6-7.38,0-12.98,2.46-16.79,7.38s-5.71,11.72-5.71,20.39Z"/>
    <path d="M289.33,198.46c1.84,0,3.54-.14,5.13-.41,1.58-.27,2.98-.62,4.19-1.05v4.92c-1.25,.43-2.72,.81-4.39,1.14-1.68,.33-3.54,.5-5.57,.5-3.59,0-6.58-.67-8.96-2.02-2.38-1.35-4.18-3.4-5.39-6.15-1.21-2.75-1.82-6.26-1.82-10.52v-41.25h-9.49v-3.52l9.43-1.82,2.05-15h3.93v15.41h19.86v4.92h-19.86v40.9c0,4.57,.85,8.04,2.55,10.4,1.7,2.36,4.48,3.54,8.35,3.54Z"/>
    <path d="M313.61,115.14c1.48,0,2.58,.44,3.28,1.32s1.05,2.06,1.05,3.54-.35,2.66-1.05,3.52c-.7,.86-1.8,1.29-3.28,1.29-1.41,0-2.46-.43-3.16-1.29-.7-.86-1.05-2.03-1.05-3.52s.35-2.67,1.05-3.54,1.76-1.32,3.16-1.32Zm2.87,23.55v63.69h-5.92v-63.69h5.92Z"/>
    <path d="M361.56,203.56c-6.33,0-11.67-1.32-16.03-3.96-4.36-2.64-7.64-6.41-9.84-11.31-2.21-4.9-3.31-10.71-3.31-17.43s1.27-12.98,3.81-17.96c2.54-4.98,6.11-8.8,10.72-11.46,4.61-2.66,10.02-3.98,16.23-3.98,3.05,0,5.88,.27,8.5,.82,2.62,.55,4.98,1.31,7.09,2.29l-1.58,5.21c-2.19-.98-4.51-1.72-6.97-2.23-2.46-.51-4.82-.76-7.09-.76-5.23,0-9.68,1.14-13.33,3.43-3.65,2.29-6.45,5.53-8.38,9.73-1.93,4.2-2.9,9.15-2.9,14.85,0,5.35,.82,10.09,2.46,14.21,1.64,4.12,4.16,7.36,7.56,9.73,3.4,2.36,7.75,3.54,13.07,3.54,3.09,0,6.02-.31,8.82-.94,2.79-.62,5.34-1.43,7.65-2.4v5.39c-2.07,.94-4.46,1.71-7.18,2.31-2.72,.6-5.81,.91-9.29,.91Z"/>
    <path d="M431.18,185.69c0,3.79-.95,7.02-2.84,9.7-1.9,2.68-4.66,4.71-8.29,6.09s-8.11,2.08-13.42,2.08c-4.41,0-8.36-.39-11.84-1.17-3.48-.78-6.39-1.74-8.73-2.87v-5.86c2.93,1.45,6.17,2.62,9.73,3.52,3.55,.9,7.21,1.35,10.96,1.35,6.56,0,11.29-1.11,14.18-3.34,2.89-2.23,4.34-5.27,4.34-9.14,0-2.54-.71-4.64-2.14-6.3-1.43-1.66-3.47-3.1-6.12-4.31-2.66-1.21-5.86-2.44-9.61-3.69-3.91-1.33-7.37-2.65-10.4-3.96-3.03-1.31-5.4-3.05-7.12-5.21-1.72-2.17-2.58-5.13-2.58-8.88,0-5.12,2.05-9.1,6.15-11.95,4.1-2.85,9.61-4.28,16.52-4.28,3.83,0,7.39,.36,10.69,1.08,3.3,.72,6.3,1.65,8.99,2.78l-2.11,5.04c-2.42-1.13-5.21-2.05-8.38-2.75s-6.33-1.05-9.49-1.05c-5.2,0-9.26,.92-12.19,2.75-2.93,1.84-4.39,4.53-4.39,8.09,0,2.73,.7,4.87,2.11,6.42,1.41,1.54,3.42,2.83,6.04,3.87,2.62,1.04,5.72,2.18,9.32,3.43,3.71,1.29,7.14,2.64,10.28,4.04,3.14,1.41,5.65,3.22,7.53,5.45s2.81,5.25,2.81,9.08Z"/>
    <path d="M476.57,202.39V116.73h6.04v85.66h-6.04Z"/>
    <path d="M531.67,137.47c7.15,0,12.64,1.88,16.46,5.62,3.83,3.75,5.74,9.63,5.74,17.64v41.66h-5.86v-41.31c0-6.33-1.45-10.98-4.34-13.95-2.89-2.97-7.09-4.45-12.6-4.45-6.99,0-12.33,2.04-16.03,6.12-3.69,4.08-5.54,10.24-5.54,18.49v35.1h-5.92v-63.69h4.8l.88,11.6h.35c1.13-2.38,2.69-4.54,4.66-6.47,1.97-1.93,4.4-3.48,7.29-4.63,2.89-1.15,6.25-1.73,10.08-1.73Z"/>
    <path d="M612.61,185.69c0,3.79-.95,7.02-2.84,9.7-1.9,2.68-4.66,4.71-8.29,6.09s-8.11,2.08-13.42,2.08c-4.41,0-8.36-.39-11.84-1.17-3.48-.78-6.39-1.74-8.73-2.87v-5.86c2.93,1.45,6.17,2.62,9.73,3.52,3.55,.9,7.21,1.35,10.96,1.35,6.56,0,11.29-1.11,14.18-3.34,2.89-2.23,4.34-5.27,4.34-9.14,0-2.54-.71-4.64-2.14-6.3-1.43-1.66-3.47-3.1-6.12-4.31-2.66-1.21-5.86-2.44-9.61-3.69-3.91-1.33-7.37-2.65-10.4-3.96-3.03-1.31-5.4-3.05-7.12-5.21-1.72-2.17-2.58-5.13-2.58-8.88,0-5.12,2.05-9.1,6.15-11.95,4.1-2.85,9.61-4.28,16.52-4.28,3.83,0,7.39,.36,10.69,1.08,3.3,.72,6.3,1.65,8.99,2.78l-2.11,5.04c-2.42-1.13-5.21-2.05-8.38-2.75s-6.33-1.05-9.49-1.05c-5.2,0-9.26,.92-12.19,2.75-2.93,1.84-4.39,4.53-4.39,8.09,0,2.73,.7,4.87,2.11,6.42,1.41,1.54,3.42,2.83,6.04,3.87,2.62,1.04,5.72,2.18,9.32,3.43,3.71,1.29,7.14,2.64,10.28,4.04,3.14,1.41,5.65,3.22,7.53,5.45s2.81,5.25,2.81,9.08Z"/>
    <path d="M644.21,198.46c1.84,0,3.54-.14,5.13-.41,1.58-.27,2.98-.62,4.19-1.05v4.92c-1.25,.43-2.72,.81-4.39,1.14-1.68,.33-3.54,.5-5.57,.5-3.59,0-6.58-.67-8.96-2.02-2.38-1.35-4.18-3.4-5.39-6.15-1.21-2.75-1.82-6.26-1.82-10.52v-41.25h-9.49v-3.52l9.43-1.82,2.05-15h3.93v15.41h19.86v4.92h-19.86v40.9c0,4.57,.85,8.04,2.55,10.4,1.7,2.36,4.48,3.54,8.35,3.54Z"/>
    <path d="M668.49,115.14c1.48,0,2.58,.44,3.28,1.32s1.05,2.06,1.05,3.54-.35,2.66-1.05,3.52c-.7,.86-1.8,1.29-3.28,1.29-1.41,0-2.46-.43-3.16-1.29-.7-.86-1.05-2.03-1.05-3.52s.35-2.67,1.05-3.54,1.76-1.32,3.16-1.32Zm2.87,23.55v63.69h-5.92v-63.69h5.92Z"/>
    <path d="M708.12,198.46c1.84,0,3.54-.14,5.13-.41,1.58-.27,2.98-.62,4.19-1.05v4.92c-1.25,.43-2.72,.81-4.39,1.14-1.68,.33-3.54,.5-5.57,.5-3.59,0-6.58-.67-8.96-2.02-2.38-1.35-4.18-3.4-5.39-6.15-1.21-2.75-1.82-6.26-1.82-10.52v-41.25h-9.49v-3.52l9.43-1.82,2.05-15h3.93v15.41h19.86v4.92h-19.86v40.9c0,4.57,.85,8.04,2.55,10.4,1.7,2.36,4.48,3.54,8.35,3.54Z"/>
    <path d="M778.86,138.7v63.69h-4.8l-.88-11.48h-.35c-1.09,2.34-2.64,4.47-4.63,6.39-1.99,1.91-4.43,3.44-7.32,4.57-2.89,1.13-6.25,1.7-10.08,1.7-4.88,0-8.98-.85-12.28-2.55-3.3-1.7-5.79-4.27-7.47-7.71-1.68-3.44-2.52-7.73-2.52-12.89v-41.72h5.92v41.13c0,6.37,1.44,11.06,4.31,14.06,2.87,3.01,7.08,4.51,12.63,4.51,4.69,0,8.62-.9,11.81-2.7,3.18-1.8,5.6-4.52,7.27-8.17,1.66-3.65,2.49-8.21,2.49-13.68v-35.16h5.92Z"/>
    <path d="M815.73,198.46c1.84,0,3.54-.14,5.13-.41,1.58-.27,2.98-.62,4.19-1.05v4.92c-1.25,.43-2.72,.81-4.39,1.14-1.68,.33-3.54,.5-5.57,.5-3.6,0-6.58-.67-8.96-2.02-2.38-1.35-4.18-3.4-5.39-6.15-1.21-2.75-1.82-6.26-1.82-10.52v-41.25h-9.49v-3.52l9.43-1.82,2.05-15h3.93v15.41h19.86v4.92h-19.86v40.9c0,4.57,.85,8.04,2.55,10.4,1.7,2.36,4.48,3.54,8.35,3.54Z"/>
    <path d="M861.1,137.47c5.43,0,9.95,1.27,13.56,3.81,3.61,2.54,6.31,6.02,8.09,10.43,1.78,4.41,2.67,9.47,2.67,15.18v4.28h-46c0,8.75,2.02,15.47,6.06,20.16s9.83,7.03,17.37,7.03c3.95,0,7.37-.32,10.28-.97,2.91-.64,6.14-1.75,9.7-3.31v5.45c-3.13,1.41-6.25,2.43-9.38,3.08-3.13,.64-6.72,.97-10.78,.97-6.45,0-11.85-1.34-16.2-4.01-4.36-2.68-7.64-6.45-9.84-11.34-2.21-4.88-3.31-10.59-3.31-17.11s1.06-12.09,3.19-17.17c2.13-5.08,5.25-9.09,9.38-12.04,4.12-2.95,9.19-4.42,15.21-4.42Zm-.06,5.1c-6.09,0-11.03,2.02-14.79,6.06-3.77,4.04-5.99,9.87-6.65,17.49h39.67c0-4.65-.67-8.75-1.99-12.3-1.33-3.55-3.33-6.32-6.01-8.29-2.68-1.97-6.08-2.96-10.22-2.96Z"/>
  </g>
  <g>
    <polygon points="349.01 30.58 349.01 74.43 356.33 74.43 356.33 77.33 327.09 77.33 327.09 74.43 334.4 74.43 334.4 33.67 328.72 33.67 328.72 30.58 349.01 30.58" style="fill: #c41230;"/>
    <path d="M60.36,2.26h-2.64c-.11,2.25-1.29,3.22-3.54,3.22-4.51,0-11.11-5.48-18.84-5.48C13.31,0,0,21.7,0,40.82s12.67,38.24,33.94,38.24c12.89,0,17.72-6.12,21.16-6.12,2.26,0,2.67,1.99,2.67,4.4h2.91v-26.31h-2.91l-.64,3.65c-1.5,8.7-8.26,21.55-22.11,21.55-12.25,0-16.97-10.59-16.97-36.69C18.04,12.14,24.49,2.93,35.33,2.93c12.25,0,20.67,13.72,22.38,24.68h2.64V2.26Z" style="fill: #c41230;"/>
    <path d="M98.02,64.73c-.21,5.62-3.39,10.22-8.37,10.22-7.2,0-7.52-6.08-7.52-10.73,0-5.62,.64-9.32,7.52-10.06l8.37-.85v11.42Zm19.34,3.5c0,2.75-1.81,5.93-3.01,5.93-1.91,0-2.34-2.01-2.34-5.29v-24.37c0-12.08-11.34-15.04-22.24-15.04s-18.33,5.19-18.33,11.12c0,3.71,2.12,6.88,6.89,6.88,4.02,0,6.46-2.65,6.46-6.35,0-5.39-5.6-5.46-5.6-5.58,0-2.4,6.23-3.18,9.84-3.18,7.94,0,9,2.93,9,9.29v8.9l-10.38,.85c-9.64,.74-20.13,3.29-20.13,14.3,0,9.22,8.26,12.92,16.42,12.92,4.14,0,11.44-1.59,14.2-6.67,1.91,4.45,5.83,6.67,10.6,6.67,6.88,0,11.33-4.13,11.33-10.38h-2.7Z" style="fill: #c41230;"/>
    <polygon points="1102.51 30.42 1102.51 74.28 1109.82 74.28 1109.82 77.18 1080.58 77.18 1080.58 74.28 1087.89 74.28 1087.89 33.51 1080.58 33.51 1080.58 30.42 1102.51 30.42" style="fill: #c41230;"/>
    <path d="M467.41,53.05L484.96,2.83h24.21l-.07,2.99h-6.93V74.41h6.93v2.93h-29.09v-2.93h7.07V6.58h-.21l-24.68,70.76h-2.86L434.01,5.31h-.21v60.07c0,8.58,2.23,9.04,7.94,9.04h.32v2.93h-18.32v-2.93h0c6.05,0,7.17-3.54,7.17-8.09V5.83h-7.17V2.77h26.58l17.08,50.28Z" style="fill: #c41230;"/>
    <path d="M526.03,48.83v-7.12c0-7.1,3.07-9.32,6.67-9.32,5.09,0,6.68,3.5,6.68,9.32v7.12h-13.35Zm0,2.88h29.24c-.11-11.44-10.7-22.46-21.82-22.25-12.5,0-23.3,10.8-23.3,25.11s10.06,24.05,23.62,24.05,19.49-8.05,21.82-18.54h-2.89c-2.33,9.85-7.5,15.45-15.76,15.45-9.85,0-10.91-7.72-10.91-14.92v-8.9Z" style="fill: #c41230;"/>
    <path d="M966.12,48.66v-7.12c0-7.1,3.07-9.32,6.67-9.32,5.09,0,6.68,3.5,6.68,9.32v7.12h-13.35Zm0,2.88h29.24c-.11-11.44-10.7-22.46-21.82-22.25-12.5,0-23.3,10.8-23.3,25.11s10.06,24.05,23.62,24.05,19.49-8.05,21.82-18.54h-2.89c-2.33,9.85-7.5,15.45-15.76,15.45-9.85,0-10.91-7.72-10.91-14.92v-8.9Z" style="fill: #c41230;"/>
    <polygon points="555.46 2.93 555.46 5.62 562.77 5.62 562.77 74.35 555.46 74.35 555.46 77.34 584.69 77.34 584.69 74.35 577.38 74.35 577.38 2.93 555.46 2.93" style="fill: #c41230;"/>
    <polygon points="586.74 2.93 586.74 5.62 594.05 5.62 594.05 74.35 586.74 74.35 586.74 77.34 615.97 77.34 615.97 74.35 608.67 74.35 608.67 2.93 586.74 2.93" style="fill: #c41230;"/>
    <path d="M649.59,64.51c0,7.95-3.29,11.23-8.69,11.23s-8.68-3.29-8.68-11.23v-20.85c0-7.95,3.28-11.23,8.68-11.23s8.69,3.28,8.69,11.23v20.85Zm16.53-10.47c0-14.51-11.23-24.58-25.21-24.58s-25.21,10.06-25.21,24.58,11.23,24.58,25.21,24.58,25.21-10.06,25.21-24.58" style="fill: #c41230;"/>
    <path d="M742.15,5.36h7.41V52.42c0,16.42,11.33,26.38,28.6,26.38,19.49,0,27.97-10.28,27.97-25.85V12.71c0-6.14,1.7-7.36,5.51-7.36h2.14V2.52h-18.63v2.84h1.34c5.4,0,6.15,1.63,6.15,7.78V54.01c0,14.41-8.94,20.98-18.01,20.98-15.46,0-18.54-10.38-19.46-23.94V5.36h6.94V2.52h-29.96v2.84Z" style="fill: #c41230;"/>
    <path d="M925.68,78.37h2.86l15.68-37.07c3.17-6.92,4.87-7.8,7.31-7.91h.95v-2.9h-16.53v2.93h2.01c3.07,0,4.48-.2,4.48,2.55,0,1.7-.54,3.37-1.8,6.44l-7.2,16.95-11.53-25.94h5.88v-2.93h-26.59v2.93h4.98l19.49,44.95Z" style="fill: #c41230;"/>
    <path d="M1043.71,78.37h2.51c.53-1.7,1.62-2.54,3.74-2.54,2.75,0,6.04,2.54,11.97,2.54,10.07,0,16.95-8.68,16.95-17.37,0-12.93-8.9-13.88-20.23-15.47-5.93-.85-9.29-1.7-9.29-6.36,0-4.98,4.34-7.07,10.06-7.07,7.95,0,11.03,5.27,13.67,12.15h2.5v-15.04h-2.4c0,1.27-1.1,2.33-3.11,2.33-3.4,0-6.15-2.33-11.02-2.33-10.59,0-15.78,9.01-15.78,15.78,0,13.67,10.38,14.83,18.43,15.78,7.63,.95,10.38,1.44,10.38,6.31,0,5.61-4.66,8.17-10.38,8.17-8.05,0-13.59-6.96-15.49-14.69h-2.51v17.79Z" style="fill: #c41230;"/>
    <polygon points="897.33 30.42 897.33 74.28 904.64 74.28 904.64 77.18 875.4 77.18 875.4 74.28 882.71 74.28 882.71 33.51 875.4 33.51 875.4 30.42 897.33 30.42" style="fill: #c41230;"/>
    <path d="M882.73,15.8c0,4.05,3.24,7.3,7.3,7.3s7.3-3.24,7.3-7.3-3.24-7.3-7.3-7.3-7.3,3.24-7.3,7.3" style="fill: #c41230;"/>
    <path d="M1087.87,15.8c0,4.05,3.24,7.3,7.3,7.3s7.3-3.24,7.3-7.3-3.24-7.3-7.3-7.3-7.3,3.24-7.3,7.3" style="fill: #c41230;"/>
    <path d="M244.82,48.81v-7.12c0-7.1,3.07-9.32,6.67-9.32,5.09,0,6.68,3.5,6.68,9.32v7.12h-13.35Zm0,2.88h29.24c-.11-11.44-10.7-22.46-21.82-22.25-12.5,0-23.3,10.8-23.3,25.11s10.06,24.05,23.62,24.05,19.49-8.05,21.82-18.54h-2.89c-2.33,9.85-7.5,15.45-15.76,15.45-9.85,0-10.91-7.72-10.91-14.92v-8.9Z" style="fill: #c41230;"/>
    <path d="M372.72,48.81v-7.12c0-7.1,3.07-9.32,6.67-9.32,3.8,0,6.68,2.19,6.68,9.32v7.12h-13.35Zm0,2.88h29.24c-.11-11.44-10.7-22.46-21.82-22.25-12.5,0-23.3,10.8-23.3,25.11s10.06,24.05,23.62,24.05,19.49-8.05,21.82-18.54h-2.89c-2.33,9.85-7.5,15.45-15.76,15.45-9.85,0-10.91-7.72-10.91-14.92v-8.9Z" style="fill: #c41230;"/>
    <path d="M866.02,74.31v-28.6c0-11.44-4.87-16.79-14.93-16.79-7.1,0-14.3,4.07-17.16,10.22h0v-8.58h-21.93v2.86h7.31v40.89h-7.31v2.86h28.18v-2.86h-6.25v-27.95c.91-3.93,5.89-13.01,11.68-13.01,3.85,0,5.8,1.33,5.8,8.44v32.52h-6.04v2.86h27.97v-2.86h-7.31Z" style="fill: #c41230;"/>
    <path d="M688.01,30.73v8.58h0c2.86-6.14,10.06-10.22,17.16-10.22,10.06,0,14.93,5.34,14.93,16.79v28.6h7.31v2.86h-27.97v-2.86h6.04V41.96c0-7.11-1.95-8.44-5.8-8.44-5.79,0-10.77,9.08-11.68,13.01v27.95s6.25,0,6.25,0v2.86h-28.18v-2.86h7.31V33.59h-7.31v-2.86h21.93Z" style="fill: #c41230;"/>
    <path d="M221.51,74.46v-28.6c0-11.44-4.87-16.79-14.93-16.79-7.1,0-14.3,4.07-17.16,10.22h0v-8.58h-21.93v2.86h7.31v40.89h-7.31v2.86h28.18v-2.86h-6.25v-27.95c.91-3.93,5.89-13.01,11.68-13.01,3.85,0,5.8,1.33,5.8,8.44v32.52h-6.04v2.86h27.97v-2.86h-7.31Z" style="fill: #c41230;"/>
    <path d="M334.44,16.09c0,4.05,3.24,7.3,7.3,7.3s7.3-3.24,7.3-7.3-3.24-7.3-7.3-7.3-7.3,3.24-7.3,7.3" style="fill: #c41230;"/>
    <path d="M1173.61,30.44v3.08c4.51-.02,6.49,.41,6.49,2.46,0,1.7-.54,3.37-1.8,6.44l-7.2,16.95-11.49-25.84h6.02v-3.08h-36.52V7.71h-1.91c0,11.22-7.63,22.77-18.33,22.77v3.03h5.62v32.78c0,10.06,8.68,12.07,11.65,12.07,6.46,0,10.81-2.64,14.09-8.15l-2.27-1.25c-1.27,1.91-2.97,4.45-5.61,4.45-2.12,0-3.24-1.5-3.24-5V33.52h14.77l19.36,44.64-6.7,15.78-.02,.04s0,0,0,0h0c-.15,.29-.45,.51-.81,.51-.39,0-.7-.25-.83-.6,0-.02,0-.03-.01-.05-.86-3.07-3.63-5.3-6.99-5.3-4.05,0-7.3,3.24-7.3,7.3,0,2.85,1.62,5.28,3.98,6.48,0,0-.02,0-.03,0,.07,.04,.15,.07,.23,.1,.14,.07,.28,.14,.43,.19,.82,.34,1.71,.54,2.66,.56,6.15,.51,9.3-4.02,11.47-8.65,.49-1.05,.93-2.1,1.35-3.11,.93-2.24,2.55-6.09,4.47-10.59h0s1.84-4.31,1.84-4.31h0s14.9-35.23,14.9-35.23c3.17-6.92,4.4-7.81,8.25-7.81h.01v-3.05h-16.53Z" style="fill: #c41230;"/>
    <path d="M156.81,28.95c-6.78,0-11.97,4.66-13.98,9.96h-.21v-8.06h-21.72v2.96h7.31v40.76h-7.31v2.9h31.67v-2.9h-9.75v-22.82c0-6.81,1.78-13.79,6.26-17.63,.26-.19,.61-.24,.92-.09,.35,.17,.51,.54,.47,.9h0c-.29,.84-.52,1.83-.57,3.03-.15,3.84,3.07,6.88,7.21,6.88,5.08,0,8.05-3.71,8.05-7.73,0-5.09-3.39-8.16-8.37-8.16Z" style="fill: #c41230;"/>
    <path d="M316.25,32.4c.21-.05,.48-.17,.64,0s.16,.37,.04,.57v.02c-.65,1.08-.9,2.43-.4,3.89,.49,1.43,1.73,2.55,3.2,2.89,3.03,.69,5.67-1.55,5.67-4.44,0-1.87-1.16-3.29-2.5-4.13-1.34-.84-2.93-1.23-4.67-1.23-2.82,0-5.71,1.51-7.78,3.32,0,0,0-.01-.01-.02-.47-.34-.98-.67-1.51-.98-2.91-1.7-6.72-2.83-11.73-2.83-8.9,0-18.43,5.82-18.43,15.47,0,5.82,3.18,10.38,8.79,12.92v.21c-4.13,.53-10.6,3.39-10.6,12.18,0,5.3,2.44,9.32,6.89,10.59v.21c-4.24,1.17-9.11,5.4-9.11,10.49,0,7.84,9.22,13.88,20.98,13.88,14.72,0,24.36-9.96,24.36-22.88,0-10.27-5.08-14.94-15.47-14.72h-17.59c-2.65,0-4.42-.11-4.42-2.97,0-2.64,4.06-5.51,8.09-5.51,.71,0,1.85,.54,2.15,.64,1.28,.42,2.65,.64,4.35,.64,9.11,0,18.86-5.19,18.86-15.26,0-3.11-1.35-7.37-3.87-10.01-.15-.16-.14-.41,.03-.54,1.02-.81,2.2-1.49,2.76-1.8,.46-.25,.81-.44,1.25-.57h.03Zm-14.08,48.73c10.59,0,13.41,.44,13.41,6.91,0,7.73-9.47,14.83-20.17,14.83-9.54,0-14.11-5.85-14.32-10.93,0-4.66,2.32-7.73,5.18-10.81h15.9Zm1.8-36.19c0,12.31-2.86,12.72-6.67,12.72-4.24,0-6.46-.82-6.46-13.04,0-8.58,.95-12.23,6.46-12.23,4.98,0,6.57,.33,6.67,12.51v.04Z" style="fill: #c41230;"/>
    <path d="M1032.47,28.53c-6.78,0-11.97,4.66-13.98,9.96h-.21v-8.06h-21.72v2.96h7.31v40.76h-7.31v2.9h31.67v-2.9h-9.75v-22.82c0-6.81,1.78-13.78,6.25-17.62,.26-.18,.6-.24,.91-.09,.35,.17,.51,.54,.47,.9l.02,.03c-.28,.82-.51,1.8-.55,2.98-.15,3.84,3.07,6.88,7.21,6.88,5.08,0,8.05-3.71,8.05-7.73,0-5.09-3.39-8.16-8.37-8.16Z" style="fill: #c41230;"/>
  </g>
</svg>