<svg xmlns="http://www.w3.org/2000/svg" width="285" height="50" viewBox="0 0 285 50">
  <defs>
    <style>
      .a {
        fill: #900;
      }

      .b {
        isolation: isolate;
      }
    </style>
  </defs>
  <title>Robotics Institute SVG Logo</title>
  <g>
    <g>
      <polygon class="a" points="84.306 7.252 84.306 17.681 86.045 17.681 86.045 18.371 79.092 18.371 79.092 17.681 80.83 17.681 80.83 7.987 79.48 7.987 79.48 7.252 84.306 7.252"/>
      <path class="a" d="M15.665.519h-.628c-.025.535-.306.766-.842.766-1.074,0-2.641-1.3-4.48-1.3-5.237,0-8.4,5.161-8.4,9.706,0,4.573,3.013,9.093,8.071,9.093,3.064,0,4.214-1.456,5.031-1.456.536,0,.635.473.635,1.046h.693V12.113h-.693l-.153.869c-.356,2.069-1.964,5.125-5.258,5.125-2.912,0-4.035-2.519-4.035-8.726,0-6.513,1.532-8.7,4.112-8.7,2.912,0,4.914,3.264,5.322,5.868h.628Z"/>
      <path class="a" d="M24.621,15.373c-.05,1.336-.8,2.43-1.99,2.43-1.712,0-1.789-1.445-1.789-2.551,0-1.335.152-2.216,1.789-2.393l1.99-.2Zm4.6.832c0,.655-.431,1.411-.717,1.411-.454,0-.557-.479-.557-1.261V10.562c0-2.871-2.7-3.577-5.289-3.577-2.52,0-4.359,1.234-4.359,2.645a1.519,1.519,0,0,0,1.638,1.637,1.434,1.434,0,0,0,1.536-1.511c0-1.281-1.33-1.3-1.33-1.328,0-.57,1.481-.755,2.339-.755,1.888,0,2.14.7,2.14,2.209V12l-2.469.2c-2.293.176-4.787.782-4.787,3.4,0,2.192,1.965,3.074,3.905,3.074.983,0,2.721-.377,3.377-1.587a2.586,2.586,0,0,0,2.52,1.587,2.432,2.432,0,0,0,2.695-2.468Z"/>
      <polygon class="a" points="263.482 7.216 263.482 17.645 265.221 17.645 265.221 18.334 258.268 18.334 258.268 17.645 260.006 17.645 260.006 7.951 258.268 7.951 258.268 7.216 263.482 7.216"/>
      <path class="a" d="M112.459,12.6,116.633.655h5.757l-.017.712h-1.647V17.676h1.647v.7h-6.915v-.7h1.68V1.546h-.05l-5.869,16.827h-.681l-6.02-17.13h-.051V15.527c0,2.04.53,2.149,1.889,2.149h.077v.7h-4.356v-.7h0c1.438,0,1.7-.84,1.7-1.923V1.367h-1.7V.639h6.32Z"/>
      <path class="a" d="M126.4,11.593V9.9c0-1.688.731-2.216,1.587-2.216,1.21,0,1.588.832,1.588,2.216v1.693Zm0,.684h6.954a5.518,5.518,0,0,0-5.19-5.29,5.758,5.758,0,0,0-5.541,5.97,5.522,5.522,0,0,0,5.618,5.718c3.1,0,4.635-1.914,5.189-4.408h-.687c-.553,2.343-1.783,3.674-3.747,3.674-2.342,0-2.6-1.835-2.6-3.548Z"/>
      <path class="a" d="M231.051,11.552V9.859c0-1.688.731-2.216,1.587-2.216,1.21,0,1.587.832,1.587,2.216v1.693Zm0,.684H238a5.518,5.518,0,0,0-5.19-5.29,5.759,5.759,0,0,0-5.54,5.971,5.521,5.521,0,0,0,5.617,5.717c3.1,0,4.636-1.914,5.189-4.407h-.686c-.553,2.342-1.783,3.673-3.747,3.673-2.342,0-2.595-1.835-2.595-3.547Z"/>
      <polygon class="a" points="133.397 0.679 133.397 1.319 135.135 1.319 135.135 17.66 133.397 17.66 133.397 18.373 140.349 18.373 140.349 17.66 138.611 17.66 138.611 0.679 133.397 0.679"/>
      <polygon class="a" points="140.835 0.679 140.835 1.319 142.574 1.319 142.574 17.66 140.835 17.66 140.835 18.373 147.787 18.373 147.787 17.66 146.05 17.66 146.05 0.679 140.835 0.679"/>
      <path class="a" d="M155.781,15.321c0,1.89-.781,2.671-2.066,2.671s-2.065-.781-2.065-2.671V10.364c0-1.89.78-2.67,2.065-2.67s2.066.78,2.066,2.67Zm3.929-2.49a6,6,0,0,0-11.99,0,6,6,0,0,0,11.99,0"/>
      <path class="a" d="M177.79,1.256h1.761V12.447c0,3.9,2.7,6.272,6.8,6.272,4.636,0,6.651-2.444,6.651-6.147V3.005c0-1.461.4-1.749,1.31-1.749h.51V.581h-4.43v.675h.318c1.284,0,1.462.389,1.462,1.849v9.719c0,3.426-2.127,4.988-4.284,4.988-3.677,0-4.408-2.469-4.627-5.694V1.256h1.651V.581H177.79Z"/>
      <path class="a" d="M221.433,18.617h.68L225.841,9.8c.754-1.646,1.158-1.854,1.737-1.88h.228V7.233h-3.93v.7h.478c.731,0,1.066-.047,1.066.607a4.08,4.08,0,0,1-.429,1.531L223.279,14.1l-2.741-6.169h1.4v-.7h-6.321v.7H216.8Z"/>
      <path class="a" d="M249.5,18.617h.6a.8.8,0,0,1,.888-.6c.655,0,1.436.6,2.847.6a4.107,4.107,0,0,0,4.03-4.13c0-3.074-2.117-3.3-4.811-3.679-1.411-.2-2.209-.4-2.209-1.511,0-1.185,1.033-1.68,2.392-1.68,1.89,0,2.622,1.252,3.251,2.889h.6V6.929h-.571c0,.3-.261.554-.739.554-.807,0-1.462-.554-2.62-.554a3.745,3.745,0,0,0-3.754,3.754c0,3.25,2.469,3.527,4.383,3.753,1.815.227,2.469.342,2.469,1.5,0,1.334-1.108,1.942-2.469,1.942-1.914,0-3.23-1.655-3.684-3.494h-.6Z"/>
      <polygon class="a" points="214.692 7.216 214.692 17.645 216.431 17.645 216.431 18.334 209.478 18.334 209.478 17.645 211.216 17.645 211.216 7.951 209.478 7.951 209.478 7.216 214.692 7.216"/>
      <path class="a" d="M211.219,3.739A1.736,1.736,0,1,0,212.955,2h0a1.728,1.728,0,0,0-1.736,1.72v.016"/>
      <path class="a" d="M260,3.739a1.728,1.728,0,1,0,0-.016v.016"/>
      <path class="a" d="M59.53,11.588V9.9c0-1.689.731-2.216,1.587-2.216,1.21,0,1.587.832,1.587,2.216v1.692Zm0,.685h6.953a5.517,5.517,0,0,0-5.189-5.29,5.758,5.758,0,0,0-5.541,5.97,5.522,5.522,0,0,0,5.618,5.718c3.1,0,4.635-1.915,5.189-4.408h-.687c-.553,2.343-1.783,3.674-3.747,3.674-2.342,0-2.595-1.835-2.595-3.548Z"/>
      <path class="a" d="M89.944,11.588V9.9c0-1.689.731-2.216,1.587-2.216.9,0,1.587.523,1.587,2.216v1.692Zm0,.685H96.9a5.517,5.517,0,0,0-5.19-5.29,5.757,5.757,0,0,0-5.54,5.97,5.521,5.521,0,0,0,5.617,5.718c3.1,0,4.636-1.915,5.19-4.408h-.687c-.554,2.343-1.784,3.674-3.748,3.674-2.341,0-2.594-1.835-2.594-3.548Z"/>
      <path class="a" d="M207.247,17.652v-6.8c0-2.721-1.159-3.992-3.551-3.992a4.577,4.577,0,0,0-4.081,2.43h0V7.249H194.4v.68h1.736v9.723H194.4v.68h6.7v-.68h-1.487V11.005c.217-.935,1.4-3.093,2.778-3.093.915,0,1.379.316,1.379,2.006v7.734h-1.436v.68h6.65v-.68Z"/>
      <path class="a" d="M164.916,7.29V9.33h0A4.578,4.578,0,0,1,169,6.9c2.392,0,3.551,1.271,3.551,3.992v6.8h1.738v.68h-6.65v-.68h1.437V9.959c0-1.691-.464-2.006-1.38-2.006-1.376,0-2.561,2.158-2.778,3.093v6.647H166.4v.68h-6.7v-.68h1.735V7.969H159.7V7.29Z"/>
      <path class="a" d="M53.986,17.689v-6.8c0-2.721-1.159-3.992-3.551-3.992a4.577,4.577,0,0,0-4.081,2.43h0V7.286H41.139v.679h1.737v9.724H41.139v.68h6.7v-.68H46.353V11.042c.217-.936,1.4-3.093,2.778-3.093.915,0,1.379.315,1.379,2.006v7.734H49.074v.68h6.65v-.68Z"/>
      <path class="a" d="M80.841,3.808a1.736,1.736,0,1,0,1.736-1.736h0a1.728,1.728,0,0,0-1.736,1.72v.016"/>
      <path class="a" d="M280.391,7.219v.732c1.073,0,1.544.1,1.544.584a4.074,4.074,0,0,1-.428,1.531L279.8,14.1l-2.731-6.145h1.43V7.219h-8.683v-5.4h-.455c0,2.669-1.813,5.416-4.358,5.416v.72h1.337v7.8a2.76,2.76,0,0,0,2.769,2.871,3.585,3.585,0,0,0,3.351-1.939l-.54-.3c-.3.453-.705,1.057-1.334,1.057-.5,0-.77-.356-.77-1.189v-8.3h3.511l4.6,10.615-1.594,3.752,0,.009,0,0v0a.216.216,0,0,1-.192.123.208.208,0,0,1-.2-.143l0-.011a1.732,1.732,0,1,0-2.449,2.015h-.008c.018.009.037.016.055.024.033.016.066.032.1.046a1.761,1.761,0,0,0,.632.133c1.462.123,2.212-.955,2.726-2.056.117-.249.223-.5.321-.738.221-.533.608-1.448,1.063-2.519h0l.437-1.025h0L282.356,9.8c.754-1.646,1.046-1.857,1.961-1.857h0V7.219Z"/>
      <path class="a" d="M38.6,6.866a3.611,3.611,0,0,0-3.326,2.369h-.05V7.317H30.062v.705H31.8v9.692H30.062V18.4h7.532v-.689H35.276V12.287a5.536,5.536,0,0,1,1.49-4.193.206.206,0,0,1,.29.038.21.21,0,0,1,.041.155v0a2.406,2.406,0,0,0-.134.718,1.627,1.627,0,0,0,1.712,1.637,1.82,1.82,0,0,0,1.912-1.723c0-.039,0-.078,0-.116A1.837,1.837,0,0,0,38.6,6.866Z"/>
      <path class="a" d="M76.516,7.686c.05-.013.113-.041.152,0a.109.109,0,0,1,.009.137l0,0a1.083,1.083,0,0,0-.092.925,1.068,1.068,0,0,0,.761.686,1.085,1.085,0,0,0,1.316-.791,1.13,1.13,0,0,0,.032-.265A1.174,1.174,0,0,0,78.1,7.4a2.064,2.064,0,0,0-1.11-.293,2.987,2.987,0,0,0-1.85.79l0,0a4.027,4.027,0,0,0-.359-.233,5.426,5.426,0,0,0-2.79-.673c-2.117,0-4.384,1.385-4.384,3.678a3.273,3.273,0,0,0,2.093,3.073v.051a2.752,2.752,0,0,0-2.521,2.9,2.4,2.4,0,0,0,1.639,2.52v.049a2.909,2.909,0,0,0-2.168,2.5c0,1.864,2.192,3.3,4.989,3.3,3.5,0,5.793-2.369,5.793-5.441,0-2.444-1.208-3.552-3.678-3.5H69.566c-.629,0-1.05-.025-1.05-.706,0-.629.966-1.309,1.923-1.309a1.873,1.873,0,0,1,.512.151,3.232,3.232,0,0,0,1.033.151c2.167,0,4.484-1.234,4.484-3.628a3.742,3.742,0,0,0-.92-2.381.087.087,0,0,1,0-.122l.007-.007a5.247,5.247,0,0,1,.657-.428,1.473,1.473,0,0,1,.3-.135ZM73.168,19.278c2.519,0,3.189.105,3.189,1.642,0,1.839-2.253,3.527-4.8,3.527-2.268,0-3.356-1.39-3.405-2.6a3.63,3.63,0,0,1,1.231-2.569Zm.428-8.606c0,2.928-.679,3.025-1.586,3.025-1.009,0-1.537-.194-1.537-3.1,0-2.041.226-2.909,1.537-2.909,1.183,0,1.562.079,1.586,2.976Z"/>
      <path class="a" d="M246.826,6.765A3.611,3.611,0,0,0,243.5,9.133h-.05V7.216h-5.164v.7h1.738v9.692h-1.738v.69h7.532v-.69H243.5V12.186A5.545,5.545,0,0,1,244.988,8a.207.207,0,0,1,.289.039.209.209,0,0,1,.04.155l0,.008a2.421,2.421,0,0,0-.131.71,1.627,1.627,0,0,0,1.712,1.637,1.82,1.82,0,0,0,1.912-1.724c0-.038,0-.077,0-.116A1.837,1.837,0,0,0,246.826,6.765Z"/>
    </g>
    <g class="b">
      <g class="b">
        <path d="M8.959,30.187v17.92H6.99V30.187H.6V28.418H15.122l.286,1.769Z"/>
      </g>
      <g class="b">
        <path d="M25.2,48.107v-9.3a3.135,3.135,0,0,0-.613-2.055,2.324,2.324,0,0,0-1.9-.741,4.286,4.286,0,0,0-2.168.628,11.281,11.281,0,0,0-2.2,1.712v9.758H16.436V27.962l1.883-.343v8.9a13.035,13.035,0,0,1,2.212-1.555,5.111,5.111,0,0,1,2.525-.642,3.916,3.916,0,0,1,3.025,1.084,4.3,4.3,0,0,1,1,3.025v9.673Z"/>
        <path d="M40.377,41.487H30.989A6.426,6.426,0,0,0,32.144,45.4,3.778,3.778,0,0,0,35.3,46.8a5.9,5.9,0,0,0,2.539-.55,9.493,9.493,0,0,0,2.225-1.476l.29,1.711a8.3,8.3,0,0,1-2.3,1.385,7.54,7.54,0,0,1-2.867.528,6.579,6.579,0,0,1-2.454-.443,5.041,5.041,0,0,1-1.912-1.326,6.309,6.309,0,0,1-1.256-2.212,9.429,9.429,0,0,1-.457-3.067,9,9,0,0,1,.443-2.925,6.628,6.628,0,0,1,1.227-2.212,5.366,5.366,0,0,1,1.84-1.4,5.46,5.46,0,0,1,2.312-.485,5.176,5.176,0,0,1,2.4.528,4.877,4.877,0,0,1,1.712,1.455,6.362,6.362,0,0,1,1.013,2.155,10.154,10.154,0,0,1,.328,2.625ZM37.4,37.007a2.908,2.908,0,0,0-2.486-1.17,3.287,3.287,0,0,0-2.573,1.1A5.726,5.726,0,0,0,31.075,40h7.333A5.662,5.662,0,0,0,37.4,37.007Z"/>
      </g>
      <g class="b">
        <path d="M60.864,47.879l-2,.429-6.392-8.9H49.936v8.7h-1.97V28.418h5.023A7.086,7.086,0,0,1,57.6,29.8a4.841,4.841,0,0,1,1.7,3.981,5.489,5.489,0,0,1-.357,2.04,5.09,5.09,0,0,1-.97,1.57A5.2,5.2,0,0,1,56.5,38.505a6.911,6.911,0,0,1-1.884.642Zm-4.67-16.725a4.917,4.917,0,0,0-3.279-.967H49.936v7.534h2.635a5.632,5.632,0,0,0,3.48-.967,3.347,3.347,0,0,0,1.275-2.843A3.427,3.427,0,0,0,56.194,31.154Z"/>
      </g>
      <g class="b">
        <path d="M72.664,44.355a6.458,6.458,0,0,1-1.3,2.2,5.549,5.549,0,0,1-1.955,1.369A6.209,6.209,0,0,1,67,48.393a6.1,6.1,0,0,1-2.4-.471,5.423,5.423,0,0,1-1.926-1.369,6.375,6.375,0,0,1-1.27-2.2,8.978,8.978,0,0,1-.457-2.982,8.841,8.841,0,0,1,.471-3,6.559,6.559,0,0,1,1.284-2.212A5.436,5.436,0,0,1,64.617,34.8,5.966,5.966,0,0,1,67,34.325a6.241,6.241,0,0,1,2.439.471,5.367,5.367,0,0,1,1.941,1.369,6.559,6.559,0,0,1,1.284,2.212,8.841,8.841,0,0,1,.471,3A8.717,8.717,0,0,1,72.664,44.355ZM70.9,39.2a5.1,5.1,0,0,0-.813-1.726,3.954,3.954,0,0,0-1.313-1.141,3.743,3.743,0,0,0-1.8-.414,3.8,3.8,0,0,0-1.769.4,3.689,3.689,0,0,0-1.3,1.127,5.226,5.226,0,0,0-.8,1.727,8.362,8.362,0,0,0-.271,2.2,8.081,8.081,0,0,0,.271,2.154,5.212,5.212,0,0,0,.8,1.712,3.8,3.8,0,0,0,1.3,1.142,3.679,3.679,0,0,0,1.769.414A3.586,3.586,0,0,0,70.1,45.282a6.619,6.619,0,0,0,1.07-3.909A8.3,8.3,0,0,0,70.9,39.2Z"/>
        <path d="M86.247,44.2a6.36,6.36,0,0,1-1.384,2.282,5.506,5.506,0,0,1-2.083,1.356,7.446,7.446,0,0,1-2.6.442,12.872,12.872,0,0,1-2.6-.242,17.905,17.905,0,0,1-2.311-.642V27.962l1.883-.343V36.38A8.593,8.593,0,0,1,78.9,34.953a4.46,4.46,0,0,1,2.425-.628,5.517,5.517,0,0,1,2.1.4,4.638,4.638,0,0,1,1.726,1.226,5.945,5.945,0,0,1,1.17,2.083,9.111,9.111,0,0,1,.428,2.94A9.434,9.434,0,0,1,86.247,44.2Zm-2.43-6.9a3.294,3.294,0,0,0-2.678-1.287,3.71,3.71,0,0,0-2.1.643,9.632,9.632,0,0,0-1.876,1.7v7.783a8.073,8.073,0,0,0,1.375.4,9.024,9.024,0,0,0,1.747.144,5.054,5.054,0,0,0,1.847-.329,3.681,3.681,0,0,0,1.447-1.016,4.9,4.9,0,0,0,.945-1.745,8.2,8.2,0,0,0,.344-2.519A5.876,5.876,0,0,0,83.817,37.3Z"/>
        <path d="M99.8,44.355a6.444,6.444,0,0,1-1.3,2.2,5.537,5.537,0,0,1-1.954,1.369,6.211,6.211,0,0,1-2.412.471,6.1,6.1,0,0,1-2.4-.471,5.432,5.432,0,0,1-1.926-1.369,6.406,6.406,0,0,1-1.27-2.2,8.979,8.979,0,0,1-.456-2.982,8.841,8.841,0,0,1,.471-3,6.559,6.559,0,0,1,1.284-2.212A5.427,5.427,0,0,1,91.754,34.8a5.961,5.961,0,0,1,2.382-.471,6.246,6.246,0,0,1,2.44.471,5.367,5.367,0,0,1,1.941,1.369A6.559,6.559,0,0,1,99.8,38.377a8.841,8.841,0,0,1,.471,3A8.717,8.717,0,0,1,99.8,44.355ZM98.032,39.2a5.087,5.087,0,0,0-.814-1.726,3.961,3.961,0,0,0-1.312-1.141,3.743,3.743,0,0,0-1.8-.414,3.8,3.8,0,0,0-1.769.4,3.689,3.689,0,0,0-1.3,1.127,5.248,5.248,0,0,0-.8,1.727,8.4,8.4,0,0,0-.271,2.2,8.122,8.122,0,0,0,.271,2.154,5.234,5.234,0,0,0,.8,1.712,3.8,3.8,0,0,0,1.3,1.142,3.679,3.679,0,0,0,1.769.414,3.583,3.583,0,0,0,3.124-1.513A6.612,6.612,0,0,0,98.3,41.373,8.3,8.3,0,0,0,98.032,39.2Z"/>
        <path d="M107.69,48.265a7.713,7.713,0,0,1-1.084.071,4.177,4.177,0,0,1-2.568-.728,3.035,3.035,0,0,1-.97-2.583V36.208h-2.083v-1.6h2.083V29.931l1.883-.315V34.61h3.111l.256,1.6h-3.367v8.5a1.691,1.691,0,0,0,2,1.969,5.758,5.758,0,0,0,.67-.043,4.974,4.974,0,0,0,.585-.1l.286,1.569A7.1,7.1,0,0,1,107.69,48.265Z"/>
        <path d="M112.5,30.986a1.274,1.274,0,0,1-.956.4,1.37,1.37,0,1,1,0-2.74,1.274,1.274,0,0,1,.956.4,1.414,1.414,0,0,1,0,1.94Zm-1.9,17.121V34.61h1.883v13.5Z"/>
        <path d="M123.341,48.008a7.42,7.42,0,0,1-2.468.385,6.206,6.206,0,0,1-2.411-.471,5.332,5.332,0,0,1-1.934-1.369,6.552,6.552,0,0,1-1.269-2.2,9.809,9.809,0,0,1,.014-6.006,6.558,6.558,0,0,1,1.3-2.212,5.306,5.306,0,0,1,1.948-1.356,6.385,6.385,0,0,1,2.411-.456,7.42,7.42,0,0,1,2.468.385,7.538,7.538,0,0,1,1.927.984l-.314,1.884a7.253,7.253,0,0,0-1.955-1.249,5.615,5.615,0,0,0-2.155-.406,3.72,3.72,0,0,0-3.081,1.445,6.23,6.23,0,0,0-1.142,3.962,6.124,6.124,0,0,0,1.17,3.963,3.923,3.923,0,0,0,3.225,1.444,6.241,6.241,0,0,0,2.069-.342,6.408,6.408,0,0,0,2.04-1.255l.256,1.712A7.509,7.509,0,0,1,123.341,48.008Z"/>
        <path d="M135.112,47.337a5.923,5.923,0,0,1-3.681,1.027,9.673,9.673,0,0,1-2.668-.371,10.64,10.64,0,0,1-2.183-.855l.314-1.827a10.593,10.593,0,0,0,2.14,1.027,7.564,7.564,0,0,0,2.568.429,3.841,3.841,0,0,0,2.24-.572,1.84,1.84,0,0,0,.813-1.6,2.083,2.083,0,0,0-.171-.885,1.789,1.789,0,0,0-.57-.671,4.819,4.819,0,0,0-1.071-.57,13.522,13.522,0,0,0-1.669-.529,13.773,13.773,0,0,1-1.926-.627,4.806,4.806,0,0,1-1.341-.813,2.852,2.852,0,0,1-.771-1.085,3.916,3.916,0,0,1-.242-1.44,3.256,3.256,0,0,1,1.241-2.625,5.092,5.092,0,0,1,3.353-1.028,9.3,9.3,0,0,1,2.24.257,12.122,12.122,0,0,1,1.955.656l-.314,1.8a9.718,9.718,0,0,0-1.926-.77,7.37,7.37,0,0,0-2.012-.287,3.264,3.264,0,0,0-2.069.543,1.69,1.69,0,0,0-.671,1.37,1.586,1.586,0,0,0,.657,1.327,7.3,7.3,0,0,0,2.368.956,15.77,15.77,0,0,1,2.083.684,5.82,5.82,0,0,1,1.484.87,3.087,3.087,0,0,1,.885,1.17,3.956,3.956,0,0,1,.285,1.556A3.422,3.422,0,0,1,135.112,47.337Z"/>
        <path d="M144.214,48.107V28.418h1.969V48.107Z"/>
        <path d="M158.568,48.107v-9.3a3.135,3.135,0,0,0-.614-2.055,2.324,2.324,0,0,0-1.9-.741,4.3,4.3,0,0,0-2.169.628,11.337,11.337,0,0,0-2.2,1.712v9.758h-1.883V34.61h1.455l.315,2a11.985,11.985,0,0,1,2.3-1.64,5.271,5.271,0,0,1,2.553-.642,3.916,3.916,0,0,1,3.025,1.084,4.342,4.342,0,0,1,1,3.054v9.644Z"/>
        <path d="M170.923,47.337a5.925,5.925,0,0,1-3.681,1.027,9.673,9.673,0,0,1-2.668-.371,10.663,10.663,0,0,1-2.183-.855l.314-1.827a10.593,10.593,0,0,0,2.14,1.027,7.57,7.57,0,0,0,2.569.429,3.84,3.84,0,0,0,2.239-.572,1.838,1.838,0,0,0,.813-1.6,2.083,2.083,0,0,0-.171-.885,1.783,1.783,0,0,0-.571-.671,4.8,4.8,0,0,0-1.069-.57,13.6,13.6,0,0,0-1.67-.529,13.817,13.817,0,0,1-1.926-.627,4.806,4.806,0,0,1-1.341-.813,2.838,2.838,0,0,1-.77-1.085,3.9,3.9,0,0,1-.243-1.44,3.256,3.256,0,0,1,1.241-2.625,5.092,5.092,0,0,1,3.353-1.028,9.315,9.315,0,0,1,2.241.257,12.176,12.176,0,0,1,1.954.656l-.314,1.8a9.7,9.7,0,0,0-1.927-.77,7.352,7.352,0,0,0-2.011-.287,3.264,3.264,0,0,0-2.069.543,1.69,1.69,0,0,0-.671,1.37,1.586,1.586,0,0,0,.657,1.327,7.3,7.3,0,0,0,2.369.956,15.77,15.77,0,0,1,2.083.684,5.831,5.831,0,0,1,1.483.87,3.087,3.087,0,0,1,.885,1.17,3.974,3.974,0,0,1,.285,1.556A3.422,3.422,0,0,1,170.923,47.337Z"/>
        <path d="M179.655,48.265a7.748,7.748,0,0,1-1.085.071A4.18,4.18,0,0,1,176,47.608a3.037,3.037,0,0,1-.969-2.583V36.208h-2.083v-1.6h2.083V29.931l1.884-.315V34.61h3.11l.257,1.6h-3.367v8.5a1.69,1.69,0,0,0,2,1.969,5.788,5.788,0,0,0,.671-.043,5.028,5.028,0,0,0,.584-.1l.286,1.569A7.124,7.124,0,0,1,179.655,48.265Z"/>
        <path d="M184.462,30.986a1.272,1.272,0,0,1-.956.4,1.37,1.37,0,1,1,0-2.74,1.272,1.272,0,0,1,.956.4,1.414,1.414,0,0,1,0,1.94Zm-1.9,17.121V34.61h1.884v13.5Z"/>
        <path d="M192.866,48.265a7.748,7.748,0,0,1-1.085.071,4.18,4.18,0,0,1-2.569-.728,3.037,3.037,0,0,1-.969-2.583V36.208H186.16v-1.6h2.083V29.931l1.883-.315V34.61h3.111l.257,1.6h-3.368v8.5a1.691,1.691,0,0,0,2,1.969,5.758,5.758,0,0,0,.67-.043,5.012,5.012,0,0,0,.585-.1l.286,1.569A7.124,7.124,0,0,1,192.866,48.265Z"/>
        <path d="M204.65,48.107l-.314-2a12.1,12.1,0,0,1-2.3,1.641,5.275,5.275,0,0,1-2.554.642,3.882,3.882,0,0,1-3.039-1.1,4.392,4.392,0,0,1-.985-3.039V34.61h1.884v9.3a3.068,3.068,0,0,0,.614,2.04,2.342,2.342,0,0,0,1.9.728,4.365,4.365,0,0,0,2.169-.614,10.826,10.826,0,0,0,2.2-1.7V34.61h1.883v13.5Z"/>
      </g>
      <g class="b">
        <path d="M214.353,48.265a7.738,7.738,0,0,1-1.085.071,4.177,4.177,0,0,1-2.568-.728,3.035,3.035,0,0,1-.97-2.583V36.208h-2.083v-1.6h2.083V29.931l1.884-.315V34.61h3.11l.257,1.6h-3.367v8.5a1.69,1.69,0,0,0,2,1.969,5.788,5.788,0,0,0,.671-.043,5.088,5.088,0,0,0,.585-.1l.285,1.569A7.124,7.124,0,0,1,214.353,48.265Z"/>
      </g>
      <g class="b">
        <path d="M227.393,41.487H218A6.426,6.426,0,0,0,219.16,45.4a3.776,3.776,0,0,0,3.151,1.392,5.894,5.894,0,0,0,2.538-.55,9.5,9.5,0,0,0,2.226-1.476l.289,1.711a8.289,8.289,0,0,1-2.3,1.385,7.545,7.545,0,0,1-2.868.528,6.577,6.577,0,0,1-2.453-.443,5.033,5.033,0,0,1-1.912-1.326,6.278,6.278,0,0,1-1.256-2.212,9.4,9.4,0,0,1-.456-3.067,9.032,9.032,0,0,1,.441-2.925,6.629,6.629,0,0,1,1.228-2.212,5.357,5.357,0,0,1,1.84-1.4,5.456,5.456,0,0,1,2.311-.485,5.17,5.17,0,0,1,2.4.528,4.86,4.86,0,0,1,1.712,1.455,6.343,6.343,0,0,1,1.013,2.155,10.111,10.111,0,0,1,.329,2.625Zm-2.978-4.48a2.914,2.914,0,0,0-2.488-1.17,3.284,3.284,0,0,0-2.572,1.1A5.734,5.734,0,0,0,218.09,40h7.333A5.669,5.669,0,0,0,224.415,37.007Z"/>
      </g>
    </g>
  </g>
</svg>
